<svg xmlns="http://www.w3.org/2000/svg" xmlns:xlink="http://www.w3.org/1999/xlink" width="28" height="28" viewBox="0 0 28 28">
  <defs>
    <clipPath id="clip-path">
      <rect id="Rectangle_2" data-name="Rectangle 2" width="28" height="28" fill="#fff"/>
    </clipPath>
  </defs>
  <g id="ic_cart" clip-path="url(#clip-path)">
    <path id="Path_8" data-name="Path 8" d="M26.144,27.08,24.015,6.814a.834.834,0,0,0-.829-.746h-4V5.156a5.156,5.156,0,0,0-10.311,0v.912h-4a.833.833,0,0,0-.829.746L1.919,27.08a.833.833,0,0,0,.829.92H25.315a.833.833,0,0,0,.829-.92ZM10.542,5.156a3.489,3.489,0,0,1,6.978,0v.912H10.542ZM3.673,26.333l1.953-18.6H8.875V9.571a.833.833,0,1,0,1.667,0V7.734H17.52V9.571a.833.833,0,1,0,1.667,0V7.734h3.249l1.953,18.6Z" fill="#fff"/>
  </g>
</svg>
