<svg id="ic_insta" xmlns="http://www.w3.org/2000/svg" width="16" height="16" viewBox="0 0 16 16">
  <path id="Path_2" data-name="Path 2" d="M9.531,8A1.531,1.531,0,1,1,8,6.469,1.531,1.531,0,0,1,9.531,8Z"/>
  <path id="Path_3" data-name="Path 3" d="M11.581,5.291a1.522,1.522,0,0,0-.872-.872,2.541,2.541,0,0,0-.853-.158c-.484-.022-.63-.027-1.856-.027s-1.372,0-1.856.027a2.543,2.543,0,0,0-.853.158,1.522,1.522,0,0,0-.872.872,2.543,2.543,0,0,0-.158.853c-.022.484-.027.63-.027,1.856s0,1.372.027,1.856a2.541,2.541,0,0,0,.158.853,1.522,1.522,0,0,0,.872.872,2.541,2.541,0,0,0,.853.158c.484.022.63.027,1.856.027s1.372,0,1.856-.027a2.54,2.54,0,0,0,.853-.158,1.521,1.521,0,0,0,.872-.872,2.545,2.545,0,0,0,.158-.853c.022-.484.027-.63.027-1.856s0-1.372-.027-1.856A2.539,2.539,0,0,0,11.581,5.291ZM8,10.359A2.359,2.359,0,1,1,10.358,8,2.359,2.359,0,0,1,8,10.359ZM10.452,6.1A.551.551,0,1,1,11,5.548.551.551,0,0,1,10.452,6.1Z"/>
  <path id="Path_4" data-name="Path 4" d="M8,0a8,8,0,1,0,8,8A8,8,0,0,0,8,0Zm4.566,9.894a3.368,3.368,0,0,1-.214,1.115,2.348,2.348,0,0,1-1.344,1.344,3.37,3.37,0,0,1-1.115.214c-.49.022-.646.028-1.894.028s-1.4-.005-1.894-.028a3.37,3.37,0,0,1-1.115-.214,2.349,2.349,0,0,1-1.344-1.344,3.37,3.37,0,0,1-.214-1.115C3.411,9.4,3.406,9.248,3.406,8s.005-1.4.028-1.894a3.371,3.371,0,0,1,.213-1.115A2.35,2.35,0,0,1,4.991,3.647a3.374,3.374,0,0,1,1.115-.214c.49-.022.646-.028,1.894-.028s1.4.005,1.894.028a3.374,3.374,0,0,1,1.115.213,2.349,2.349,0,0,1,1.344,1.344,3.37,3.37,0,0,1,.214,1.115c.022.49.028.646.028,1.894S12.589,9.4,12.566,9.894Z"/>
</svg>
