<svg xmlns="http://www.w3.org/2000/svg" width="21" height="20" viewBox="0 0 21 20">
  <path id="ic_search" d="M20.761,18.673l-5.125-4.881a8.141,8.141,0,0,0,2.041-5.374A8.646,8.646,0,0,0,8.839,0,8.646,8.646,0,0,0,0,8.418a8.645,8.645,0,0,0,8.839,8.417,9.067,9.067,0,0,0,5.642-1.944l5.125,4.881a.846.846,0,0,0,1.155,0A.751.751,0,0,0,20.761,18.673ZM1.633,8.418A7.048,7.048,0,0,1,8.839,1.555a7.048,7.048,0,0,1,7.205,6.863A7.048,7.048,0,0,1,8.839,15.28,7.048,7.048,0,0,1,1.633,8.418Z" fill="#fff"/>
</svg>
